<svg width="256" height="256" viewBox="0 0 64 64" xmlns="http://www.w3.org/2000/svg">
  <defs>
    <linearGradient id="zyngraGrad" x1="0" y1="0" x2="1" y2="1">
      <stop offset="0%" stop-color="#7C3AED"/>
      <stop offset="50%" stop-color="#4F46E5"/>
      <stop offset="100%" stop-color="#06B6D4"/>
    </linearGradient>
  </defs>
  <rect x="4" y="4" width="56" height="56" rx="14" fill="url(#zyngraGrad)"/>
  <g fill="white" opacity="0.95">
    <path d="M20 19h24a3 3 0 0 1 3 3v26l-4-3-4 3-4-3-4 3-4-3-4 3V22a3 3 0 0 1 3-3z" opacity="0.25"/>
    <path d="M22 24h20" stroke="white" stroke-width="3" stroke-linecap="round" opacity="0.65"/>
    <path d="M22 30h12" stroke="white" stroke-width="3" stroke-linecap="round" opacity="0.65"/>
    <path d="M38 26l-9 12h7l-4 9 12-14h-8l2-7z" fill="white"/>
  </g>
</svg>
